<mxfile host="app.diagrams.net">
  <diagram name="Istio NLB SSL Termination Flow" id="IstioSSLFlow">
    <mxGraphModel dx="827" dy="523" grid="1" gridSize="10" guides="1" tooltips="1" connect="1" arrows="1" fold="1" page="1" pageScale="1" pageWidth="1654" pageHeight="1169" math="0" shadow="0">
      <root>
        <mxCell id="0"/>
        <mxCell id="1" parent="0"/>
        
        <!-- User -->
        <mxCell id="2" value="User (Browser / API Client)" style="shape=ellipse;whiteSpace=wrap;html=1;fillColor=#f5f5f5;strokeColor=#666666;" vertex="1" parent="1">
          <mxGeometry x="80" y="180" width="160" height="60" as="geometry"/>
        </mxCell>
        
        <!-- NLB -->
        <mxCell id="3" value="AWS NLB (TCP passthrough)" style="shape=process;whiteSpace=wrap;html=1;fillColor=#dae8fc;strokeColor=#6c8ebf;" vertex="1" parent="1">
          <mxGeometry x="300" y="180" width="200" height="60" as="geometry"/>
        </mxCell>
        
        <!-- Istio IngressGateway Pod -->
        <mxCell id="4" value="Istio IngressGateway Pods (Envoy)&#10;ðŸ”’ SSL Termination Here" style="shape=process;whiteSpace=wrap;html=1;fillColor=#ffe6cc;strokeColor=#d79b00;fontColor=#b30000;fontStyle=1;" vertex="1" parent="1">
          <mxGeometry x="560" y="180" width="260" height="70" as="geometry"/>
        </mxCell>
        
        <!-- Istio Gateway CRD -->
        <mxCell id="5" value="Istio Gateway CRD (TLS/Host Rules)" style="shape=process;whiteSpace=wrap;html=1;fillColor=#d5e8d4;strokeColor=#82b366;" vertex="1" parent="1">
          <mxGeometry x="880" y="100" width="220" height="60" as="geometry"/>
        </mxCell>
        
        <!-- VirtualService -->
        <mxCell id="6" value="VirtualService (Routing Rules)" style="shape=process;whiteSpace=wrap;html=1;fillColor=#fff2cc;strokeColor=#d6b656;" vertex="1" parent="1">
          <mxGeometry x="880" y="260" width="220" height="60" as="geometry"/>
        </mxCell>
        
        <!-- App Pods -->
        <mxCell id="7" value="Kubernetes Service â†’ App Pods" style="shape=process;whiteSpace=wrap;html=1;fillColor=#f8cecc;strokeColor=#b85450;" vertex="1" parent="1">
          <mxGeometry x="1180" y="180" width="240" height="60" as="geometry"/>
        </mxCell>
        
        <!-- Edges -->
        <mxCell id="8" edge="1" parent="1" source="2" target="3">
          <mxGeometry relative="1" as="geometry"/>
        </mxCell>
        <mxCell id="9" edge="1" parent="1" source="3" target="4">
          <mxGeometry relative="1" as="geometry"/>
        </mxCell>
        <mxCell id="10" edge="1" parent="1" source="4" target="7">
          <mxGeometry relative="1" as="geometry"/>
        </mxCell>
        <mxCell id="11" edge="1" parent="1" source="5" target="4">
          <mxGeometry relative="1" as="geometry"/>
        </mxCell>
        <mxCell id="12" edge="1" parent="1" source="6" target="4">
          <mxGeometry relative="1" as="geometry"/>
        </mxCell>
        
      </root>
    </mxGraphModel>
  </diagram>
</mxfile>
